<svg width="23" height="22" viewBox="0 0 23 22" fill="none" xmlns="http://www.w3.org/2000/svg">
<path fill-rule="evenodd" clip-rule="evenodd" d="M11.1524 0.000375577C13.9501 -0.0193914 16.6514 1.02178 18.7122 2.91417C20.7729 4.80657 22.04 7.40957 22.2581 10.1989C22.4763 12.9882 21.6293 15.7565 19.8879 17.9463C18.1464 20.1361 15.6398 21.5845 12.873 22V14.2571H15.454L15.9456 11.0616H12.873V8.98458C12.873 8.12426 13.3032 7.26394 14.6797 7.26394H16.0808V4.53549C16.0808 4.53549 14.8149 4.32656 13.5982 4.32656C11.0786 4.32656 9.41945 5.85056 9.41945 8.62816V11.0616H6.61727V14.2571H9.41945V22C6.65146 21.5845 4.1439 20.1352 2.40225 17.944C0.660599 15.7529 -0.18562 12.983 0.0341789 10.1926C0.253977 7.4023 1.52345 4.79903 3.58668 2.90762C5.64992 1.01621 8.35349 -0.0226767 11.1524 0.000375577V0.000375577Z" fill="white"/>
</svg>
