<svg width="22" height="22" viewBox="0 0 22 22" fill="none" xmlns="http://www.w3.org/2000/svg">
<path fill-rule="evenodd" clip-rule="evenodd" d="M10.7261 1.93069C13.5819 1.93069 13.9171 1.9441 15.0567 1.99773C16.1025 2.03795 16.6656 2.21225 17.041 2.37314C17.5505 2.56085 17.9125 2.78878 18.2745 3.1776C18.65 3.5396 18.8913 3.90161 19.079 4.39769C19.2265 4.78651 19.4008 5.33622 19.4544 6.39542C19.508 7.52166 19.5215 7.87026 19.5215 10.7261C19.5215 13.5953 19.508 13.9305 19.4544 15.0567C19.4008 16.1159 19.2265 16.6656 19.079 17.0545C18.8913 17.5505 18.65 17.9125 18.2745 18.288C17.9125 18.6634 17.5505 18.8913 17.041 19.0924C16.6656 19.2265 16.1025 19.4142 15.0567 19.4544C13.9171 19.508 13.5819 19.5215 10.7261 19.5215H10.7258C7.85683 19.5215 7.52163 19.5215 6.39542 19.4544C5.70899 19.4528 5.02821 19.3302 4.38428 19.0924C3.92296 18.9181 3.5062 18.6433 3.16419 18.288C2.80578 17.9433 2.53066 17.5214 2.35974 17.0545C2.22566 16.679 2.03795 16.1159 1.99773 15.0567C1.9441 13.9305 1.93069 13.5819 1.93069 10.7261V10.726C1.93069 7.85685 1.93069 7.52165 1.99773 6.39542C2.03795 5.34963 2.21225 4.78651 2.35974 4.39769C2.56085 3.90161 2.78878 3.5396 3.16419 3.16419C3.5396 2.78878 3.8882 2.56085 4.39769 2.35974C4.7731 2.22566 5.33622 2.03795 6.39542 1.99773C7.52166 1.9441 7.87026 1.93069 10.7261 1.93069ZM10.7261 0C7.81663 0 7.44121 0.0134078 6.30157 0.0670382C5.16192 0.120669 4.38428 0.294967 3.7005 0.563119C2.98266 0.82963 2.33077 1.24788 1.78932 1.78932C1.24788 2.33077 0.82963 2.98266 0.563119 3.7005C0.294967 4.37088 0.120669 5.16192 0.0670382 6.30157C0 7.44121 0 7.81663 0 10.7261C0 13.6355 0.0134078 13.9975 0.0670382 15.1506C0.120669 16.2902 0.294967 17.0679 0.563119 17.7517C0.82963 18.4695 1.24788 19.1214 1.78932 19.6628C2.33077 20.2043 2.98266 20.6225 3.7005 20.889C4.37088 21.1572 5.16192 21.3315 6.30157 21.3851C7.45462 21.4387 7.81663 21.4521 10.7261 21.4521H10.7263C13.6355 21.4521 13.9976 21.4521 15.1506 21.3851C16.0393 21.3671 16.9187 21.1994 17.7517 20.889C18.4695 20.6225 19.1214 20.2043 19.6628 19.6628C20.2043 19.1214 20.6225 18.4695 20.889 17.7517C21.1572 17.0813 21.3315 16.2902 21.3851 15.1506C21.4387 13.9975 21.4521 13.6355 21.4521 10.7261V10.7258C21.4521 7.8032 21.4521 7.44118 21.3851 6.30157C21.3671 5.41283 21.1994 4.53349 20.889 3.7005C20.6221 2.98325 20.2011 2.33333 19.6555 1.79662C19.0522 1.20668 18.4488 0.831271 17.7517 0.563119C17.0813 0.294967 16.2902 0.107261 15.1506 0.0536303L15.1244 0.0527176C13.9919 0.0132045 13.6134 0 10.7261 0ZM10.7261 5.22898C9.2664 5.22898 7.86648 5.80885 6.83431 6.84101C5.80215 7.87318 5.22228 9.2731 5.22228 10.7328C5.22228 12.1925 5.80215 13.5924 6.83431 14.6246C7.86648 15.6567 9.2664 16.2366 10.7261 16.2366C12.1876 16.2366 13.5892 15.656 14.6226 14.6226C15.6561 13.5892 16.2366 12.1876 16.2366 10.7261C16.2366 9.26461 15.6561 7.86299 14.6226 6.82957C13.5892 5.79614 12.1876 5.21557 10.7261 5.21557V5.22898ZM10.7261 14.3059C9.77667 14.3059 8.86613 13.9288 8.19478 13.2574C7.52343 12.5861 7.14627 11.6755 7.14627 10.7261C7.14627 9.77666 7.52343 8.86612 8.19478 8.19477C8.86613 7.52343 9.77667 7.14627 10.7261 7.14627C11.6755 7.14627 12.5861 7.52343 13.2574 8.19477C13.9288 8.86612 14.3059 9.77666 14.3059 10.7261C14.3059 11.6755 13.9288 12.5861 13.2574 13.2574C12.5861 13.9288 11.6755 14.3059 10.7261 14.3059ZM17.3612 5.91115C17.1199 6.15254 16.7925 6.28815 16.4511 6.28815C16.1097 6.28815 15.7824 6.15254 15.541 5.91115C15.2996 5.66977 15.164 5.34239 15.164 5.00102C15.164 4.65965 15.2996 4.33226 15.541 4.09088C15.7824 3.8495 16.1097 3.71389 16.4511 3.71389C16.7925 3.71389 17.1199 3.8495 17.3612 4.09088C17.6026 4.33226 17.7382 4.65965 17.7382 5.00102C17.7382 5.34239 17.6026 5.66977 17.3612 5.91115Z" fill="white"/>
</svg>
