<svg width="22" height="18" viewBox="0 0 22 18" fill="none" xmlns="http://www.w3.org/2000/svg">
<path d="M6.87097 17.4185C14.9692 17.4185 19.3937 10.7147 19.3937 4.89582V4.3327C20.2514 3.70836 20.9914 2.93661 21.5791 2.05341C20.7746 2.402 19.93 2.64334 19.0451 2.73719C19.9654 2.19012 20.6561 1.32791 20.9892 0.310418C20.1177 0.819907 19.1791 1.18191 18.187 1.38303C17.5227 0.679345 16.6454 0.213642 15.6903 0.0576747C14.7353 -0.0982926 13.7554 0.0641319 12.9018 0.519921C12.0481 0.975709 11.3681 1.69957 10.9663 2.57996C10.5646 3.46035 10.4636 4.44841 10.6787 5.3919C8.93241 5.30125 7.22456 4.8451 5.66562 4.05293C4.10668 3.26075 2.73136 2.1502 1.6286 0.793092C1.06542 1.76192 0.893339 2.90921 1.14751 4.00063C1.40167 5.09205 2.06291 6.04528 2.99618 6.66562C2.29583 6.64514 1.61067 6.45661 0.998447 6.11591V6.16954C0.996882 7.18576 1.34731 8.17116 1.99015 8.95821C2.633 9.74527 3.52858 10.2854 4.52464 10.4868C3.88108 10.6611 3.19729 10.6879 2.54032 10.5672C2.82465 11.4396 3.37395 12.2016 4.11173 12.7472C4.8495 13.2927 5.73904 13.5946 6.65645 13.6108C5.74375 14.3343 4.69701 14.8702 3.57643 15.1878C2.45585 15.5053 1.28355 15.5982 0.126953 15.461C2.141 16.7461 4.48185 17.4256 6.87097 17.4185Z" fill="white"/>
</svg>
