<svg width="27" height="20" viewBox="0 0 27 20" fill="none" xmlns="http://www.w3.org/2000/svg">
<g clip-path="url(#clip0_302_597)">
<path d="M25.2685 1.80563C23.3713 0.176073 18.6562 0 13.4987 0C8.34113 0 3.6261 0.172621 1.73059 1.80563C-0.164918 3.43863 0.00292088 10 0.00292088 10C0.00292088 10 -0.166613 16.5596 1.73059 18.1926C3.6278 19.8257 8.34282 19.9983 13.4987 19.9983C18.6545 19.9983 23.3713 19.8257 25.2685 18.1926C27.1657 16.5596 26.9945 10 26.9945 10C26.9945 10 27.164 3.43691 25.2685 1.80563ZM10.2824 15.4428V4.80925L18.7936 10.1709L10.2824 15.4428Z" fill="white"/>
</g>
<defs>
<clipPath id="clip0_302_597">
<rect width="27" height="20" fill="white"/>
</clipPath>
</defs>
</svg>
